<svg width="39" height="67" viewBox="0 0 39 67" fill="none" xmlns="http://www.w3.org/2000/svg">
<path d="M37.5355 65.3195C38.4728 64.3819 38.9994 63.1103 38.9994 61.7845C38.9994 60.4587 38.4728 59.1871 37.5355 58.2495L12.7855 33.4995L37.5355 8.74949C38.4463 7.80648 38.9502 6.54347 38.9389 5.23248C38.9275 3.92149 38.4016 2.66743 37.4746 1.74039C36.5475 0.813351 35.2935 0.28751 33.9825 0.27612C32.6715 0.264729 31.4085 0.768696 30.4655 1.67949L2.18048 29.9645C1.24313 30.9021 0.716553 32.1737 0.716553 33.4995C0.716553 34.8253 1.24313 36.0968 2.18048 37.0345L30.4655 65.3195C31.4031 66.2568 32.6747 66.7834 34.0005 66.7834C35.3263 66.7834 36.5978 66.2568 37.5355 65.3195Z" fill="#DDB415"/>
</svg>
