<svg width="54" height="54" viewBox="0 0 54 54" fill="none" xmlns="http://www.w3.org/2000/svg">
<path fill-rule="evenodd" clip-rule="evenodd" d="M53.6667 26.9997C53.6667 41.7273 41.7276 53.6663 27 53.6663C12.2724 53.6663 0.333374 41.7273 0.333374 26.9997C0.333374 12.2721 12.2724 0.333008 27 0.333008C41.7276 0.333008 53.6667 12.2721 53.6667 26.9997ZM18.919 18.9187C19.7001 18.1377 20.9664 18.1377 21.7475 18.9187L27 24.1712L32.2524 18.9188C33.0334 18.1377 34.2998 18.1377 35.0808 18.9188C35.8619 19.6998 35.8619 20.9662 35.0808 21.7472L29.8284 26.9996L35.0808 32.252C35.8618 33.0331 35.8618 34.2994 35.0808 35.0805C34.2997 35.8615 33.0334 35.8615 32.2523 35.0805L27 29.8281L21.7475 35.0805C20.9665 35.8615 19.7002 35.8615 18.9191 35.0805C18.1381 34.2995 18.1381 33.0331 18.9191 32.2521L24.1715 26.9996L18.919 21.7472C18.138 20.9661 18.138 19.6998 18.919 18.9187Z" fill="#F3C923"/>
</svg>
