<svg width="62" height="66" viewBox="0 0 62 66" fill="none" xmlns="http://www.w3.org/2000/svg">
<path d="M56 1.1875C57.409 1.1875 58.7605 1.74688 59.7568 2.74316L59.9385 2.93457C60.8207 3.90906 61.3125 5.17921 61.3125 6.5V13.4531L61.3037 13.7998C61.2234 15.4095 60.5879 16.9421 59.5059 18.1367L59.2676 18.3877L41.3125 36.3428V60.96L41.3047 61.2139C41.2724 61.7198 41.1439 62.2152 40.9258 62.6729L40.8086 62.8975C40.5196 63.416 40.119 63.8627 39.6367 64.2051L39.4258 64.3457C38.921 64.6577 38.3534 64.8518 37.7656 64.916L37.5117 64.9355C36.919 64.9621 36.3288 64.8561 35.7842 64.626L35.5537 64.5195L23.1641 58.3262C22.5131 58.0007 21.9522 57.5221 21.5293 56.9336L21.3564 56.6748C20.9192 55.9673 20.6876 55.152 20.6875 54.3203V36.3428L2.73242 18.3877C1.42348 17.0792 0.687895 15.304 0.6875 13.4531V6.5C0.6875 5.09104 1.24688 3.73945 2.24316 2.74316L2.43457 2.56152C3.40906 1.67926 4.67921 1.1875 6 1.1875H56ZM7.97949 13.3242L26.4209 31.7656L26.6016 31.9551C27.0109 32.4064 27.3403 32.9252 27.5742 33.4893L27.668 33.7334C27.8734 34.3071 27.9794 34.9127 27.9795 35.5234V52.5801L34.0205 55.6006V35.5234C34.0205 34.1141 34.5806 32.761 35.5801 31.7686L54.0205 13.3213V8.47949H7.97949V13.3242Z" fill="#373737" stroke="#373737" stroke-width="0.625"/>
</svg>
