<svg width="46" height="34" viewBox="0 0 46 34" fill="none" xmlns="http://www.w3.org/2000/svg">
<path d="M21.4287 12.0503C20.843 11.4645 20.843 10.5148 21.4287 9.92896C22.0146 9.34314 22.9644 9.34314 23.55 9.92896L28.5 14.8788L33.4497 9.92896C34.0354 9.34314 34.9851 9.34314 35.571 9.92896C36.1567 10.5146 36.1567 11.4645 35.571 12.0503L30.6211 17L35.571 21.9498C36.1567 22.5355 36.1567 23.4854 35.571 24.071C34.9851 24.6569 34.0354 24.6569 33.4497 24.071L28.5 19.1213L23.55 24.071C22.9644 24.6569 22.0146 24.6569 21.429 24.071C20.843 23.4852 20.843 22.5355 21.429 21.9497L26.3787 17.0001L21.4287 12.0503Z" fill="white"/>
<path fill-rule="evenodd" clip-rule="evenodd" d="M15.2427 1.75732L0 17L15.2427 32.2427C16.3679 33.3679 17.894 34 19.4854 34H40C43.3137 34 46 31.3137 46 28V6C46 2.68628 43.3137 0 40 0H19.4854C17.894 0 16.3679 0.632202 15.2427 1.75732ZM40 31.4H19.4854C18.5835 31.4 17.7188 31.0417 17.0811 30.4042L3.677 17L17.0811 3.59583C17.7188 2.95825 18.5835 2.59998 19.4854 2.59998H40C41.8777 2.59998 43.3999 4.12219 43.3999 6V28C43.3999 29.8778 41.8777 31.4 40 31.4Z" fill="white"/>
</svg>
