<svg width="70" height="70" viewBox="0 0 70 70" fill="none" xmlns="http://www.w3.org/2000/svg">
<path d="M64.9998 65.0007L50.5231 50.524M50.5231 50.524C52.9994 48.0477 54.9637 45.1079 56.3039 41.8725C57.6441 38.6371 58.3338 35.1694 58.3338 31.6674C58.3338 28.1653 57.6441 24.6976 56.3039 21.4622C54.9637 18.2268 52.9994 15.287 50.5231 12.8107C48.0469 10.3344 45.1071 8.37009 41.8716 7.02993C38.6362 5.68977 35.1685 5 31.6665 5C28.1645 5 24.6968 5.68977 21.4613 7.02993C18.2259 8.37009 15.2861 10.3344 12.8098 12.8107C7.80872 17.8118 4.99913 24.5947 4.99913 31.6674C4.99913 38.74 7.80872 45.5229 12.8098 50.524C17.8109 55.5251 24.5939 58.3347 31.6665 58.3347C38.7391 58.3347 45.522 55.5251 50.5231 50.524Z" stroke="#373737" stroke-width="8.33333" stroke-linecap="round" stroke-linejoin="round"/>
</svg>
