<svg width="68" height="68" viewBox="0 0 68 68" fill="none" xmlns="http://www.w3.org/2000/svg">
<path d="M29.2474 62.5713L29.2474 38.7617L5.43788 38.7617C4.17494 38.7617 2.96373 38.26 2.0707 37.367C1.17767 36.474 0.67597 35.2628 0.675971 33.9998C0.675971 32.7369 1.17767 31.5257 2.0707 30.6327C2.96373 29.7396 4.17494 29.2379 5.43788 29.2379L29.2474 29.2379L29.2474 5.42841C29.2474 4.16547 29.7491 2.95426 30.6421 2.06123C31.5352 1.1682 32.7464 0.666502 34.0093 0.666502C35.2722 0.666503 36.4834 1.1682 37.3765 2.06123C38.2695 2.95426 38.7712 4.16547 38.7712 5.42841L38.7712 29.2379L62.5807 29.2379C63.8437 29.2379 65.0549 29.7396 65.9479 30.6327C66.8409 31.5257 67.3426 32.7369 67.3426 33.9998C67.3426 35.2628 66.8409 36.474 65.9479 37.367C65.0549 38.26 63.8437 38.7617 62.5807 38.7617L38.7712 38.7617L38.7712 62.5713C38.7712 63.8342 38.2695 65.0454 37.3765 65.9385C36.4834 66.8315 35.2722 67.3332 34.0093 67.3332C32.7464 67.3332 31.5352 66.8315 30.6421 65.9385C29.7491 65.0454 29.2474 63.8342 29.2474 62.5713Z" fill="#373737"/>
</svg>
