<svg width="55" height="55" viewBox="0 0 55 55" fill="none" xmlns="http://www.w3.org/2000/svg">
<path d="M34.5533 54.1667C33.0711 54.1667 31.8033 53.6389 30.75 52.5834C29.6966 51.5278 29.1689 50.2612 29.1666 48.7834V34.55C29.1666 33.07 29.6944 31.8034 30.75 30.75C31.8055 29.6967 33.0722 29.1689 34.55 29.1667H48.7833C50.2633 29.1667 51.53 29.6945 52.5833 30.75C53.6366 31.8056 54.1644 33.0723 54.1666 34.55V48.7834C54.1666 50.2634 53.6389 51.53 52.5833 52.5834C51.5278 53.6367 50.2611 54.1645 48.7833 54.1667H34.5533ZM34.5533 25.8334C33.0711 25.8334 31.8033 25.3056 30.75 24.25C29.6966 23.1945 29.1689 21.9278 29.1666 20.45V6.21671C29.1666 4.73671 29.6944 3.47004 30.75 2.41671C31.8055 1.36337 33.0722 0.835596 34.55 0.833374H48.7833C50.2633 0.833374 51.53 1.36115 52.5833 2.41671C53.6366 3.47226 54.1644 4.73893 54.1666 6.21671V20.45C54.1666 21.93 53.6389 23.1967 52.5833 24.25C51.5278 25.3034 50.2611 25.8312 48.7833 25.8334H34.5533ZM6.21998 25.8334C4.73776 25.8334 3.46998 25.3056 2.41665 24.25C1.36331 23.1945 0.835535 21.9278 0.833313 20.45V6.21671C0.833313 4.73671 1.36109 3.47004 2.41665 2.41671C3.4722 1.36337 4.73887 0.835596 6.21665 0.833374H20.45C21.93 0.833374 23.1966 1.36115 24.25 2.41671C25.3033 3.47226 25.8311 4.73893 25.8333 6.21671V20.45C25.8333 21.93 25.3055 23.1967 24.25 24.25C23.1944 25.3034 21.9278 25.8312 20.45 25.8334H6.21998ZM6.21998 54.1667C4.73776 54.1667 3.46998 53.6389 2.41665 52.5834C1.36331 51.5278 0.835535 50.2623 0.833313 48.7867V34.5534C0.833313 33.0734 1.36109 31.8067 2.41665 30.7534C3.4722 29.7 4.73887 29.1723 6.21665 29.17H20.45C21.93 29.17 23.1966 29.6978 24.25 30.7534C25.3033 31.8089 25.8311 33.0756 25.8333 34.5534V48.7867C25.8333 50.2667 25.3055 51.5334 24.25 52.5867C23.1944 53.64 21.9278 54.1667 20.45 54.1667H6.21998Z" fill="#DDB30A"/>
</svg>
